<?xml version="1.0" encoding="UTF-8"?><svg id="_レイヤー_2" xmlns="http://www.w3.org/2000/svg" xmlns:xlink="http://www.w3.org/1999/xlink" viewBox="0 0 302.55 33.83"><defs><style>.cls-1{fill:#fff;}.cls-2{filter:url(#drop-shadow-2);}.cls-3{filter:url(#drop-shadow-1);}</style><filter id="drop-shadow-1" filterUnits="userSpaceOnUse"><feOffset dx="1" dy="1"/><feGaussianBlur result="blur" stdDeviation="2"/><feFlood flood-color="#000" flood-opacity=".5"/><feComposite in2="blur" operator="in"/><feComposite in="SourceGraphic"/></filter><filter id="drop-shadow-2" filterUnits="userSpaceOnUse"><feOffset dx="1" dy="1"/><feGaussianBlur result="blur-2" stdDeviation="2"/><feFlood flood-color="#000" flood-opacity=".5"/><feComposite in2="blur-2" operator="in"/><feComposite in="SourceGraphic"/></filter></defs><g id="_レイヤー_3"><g class="cls-3"><path class="cls-1" d="m14.3,24.74V0h4.4v24.74c0,2.77-.85,4.98-2.56,6.62-1.71,1.64-3.96,2.46-6.77,2.46s-5.07-.82-6.79-2.46c-1.72-1.64-2.59-3.85-2.59-6.62h4.49c.03,1.55.44,2.8,1.23,3.77.79.97,2.01,1.45,3.67,1.45s2.89-.49,3.7-1.47c.81-.98,1.21-2.23,1.21-3.75Z"/><path class="cls-1" d="m37.55,33.49V0h4.4v33.49h-4.4Z"/><path class="cls-1" d="m80.94,0h4.4v33.49h-4.4L63.26,6.91v26.58h-4.4V0h4.4l17.69,26.58V0Z"/><path class="cls-1" d="m115.35,24.74V0h4.4v24.74c0,2.77-.85,4.98-2.56,6.62-1.71,1.64-3.96,2.46-6.77,2.46s-5.07-.82-6.79-2.46c-1.72-1.64-2.59-3.85-2.59-6.62h4.49c.03,1.55.44,2.8,1.23,3.77.79.97,2.01,1.45,3.67,1.45s2.89-.49,3.7-1.47c.81-.98,1.21-2.23,1.21-3.75Z"/><path class="cls-1" d="m161.69,33.49l-2.61-7.35h-14.88l-2.61,7.35h-4.49L149.27,0h4.83l12.13,33.49h-4.54Zm-16.24-10.82h12.37l-6.19-17.3-6.19,17.3Z"/></g><g class="cls-2"><path class="cls-1" d="m205.61,0h4.4v30.11h11.74v3.38h-16.14V0Z"/><path class="cls-1" d="m259.11,33.49l-2.61-7.35h-14.88l-2.61,7.35h-4.49L246.69,0h4.83l12.13,33.49h-4.54Zm-16.24-10.82h12.37l-6.19-17.3-6.19,17.3Z"/><path class="cls-1" d="m279.06,0h11.98c3.42,0,6.06.83,7.93,2.49,1.87,1.66,2.8,3.79,2.8,6.4,0,3.74-2.14,6.2-6.43,7.39,2.16.35,3.9,1.32,5.22,2.9,1.32,1.58,1.98,3.4,1.98,5.46,0,2.55-.99,4.66-2.97,6.33-1.98,1.68-4.63,2.51-7.95,2.51h-12.56V0Zm4.4,3.53v11.02h7.39c2.03,0,3.62-.49,4.76-1.47,1.14-.98,1.71-2.32,1.71-4.01s-.57-3.04-1.71-4.04c-1.14-1-2.73-1.5-4.76-1.5h-7.39Zm0,26.48h7.93c2.13,0,3.79-.53,5-1.59,1.21-1.06,1.81-2.52,1.81-4.37s-.65-3.31-1.96-4.37c-1.3-1.06-3.04-1.59-5.2-1.59h-7.59v11.94Z"/></g></g></svg>